<svg width="153" height="152" viewBox="0 0 153 152" fill="none" xmlns="http://www.w3.org/2000/svg">
<mask id="path-1-inside-1_305_52" fill="white">
<path d="M22.4746 67.6C17.8418 72.2392 17.8418 79.7608 22.4746 84.4L77 139L131.525 84.4C136.158 79.7608 136.158 72.2392 131.525 67.6L77 13L22.4746 67.6Z"/>
</mask>
<path d="M76.9998 113.85L76.2927 114.557L76.9998 115.264L77.7069 114.557L76.9998 113.85ZM77.7069 113.142L58.2066 93.6422L56.7924 95.0564L76.2927 114.557L77.7069 113.142ZM95.7929 93.6422L76.2927 113.142L77.7069 114.557L97.2071 95.0564L95.7929 93.6422ZM58.2066 58.4569L69.9564 46.7071L68.5422 45.2929L56.7924 57.0427L58.2066 58.4569ZM84.0431 46.7071L95.7929 58.4569L97.2071 57.0427L85.4573 45.2929L84.0431 46.7071ZM22.4746 67.6L21.0595 66.1868L21.0595 66.1868L22.4746 67.6ZM22.4746 84.4L23.8898 82.9867L23.8898 82.9867L22.4746 84.4ZM77 139L75.5848 140.413C75.96 140.789 76.4691 141 77 141C77.5309 141 78.04 140.789 78.4152 140.413L77 139ZM131.525 84.4L130.11 82.9867L130.11 82.9867L131.525 84.4ZM131.525 67.6L130.11 69.0132L130.11 69.0132L131.525 67.6ZM77 13L78.4152 11.5868C78.04 11.2111 77.5309 11 77 11C76.4691 11 75.96 11.2111 75.5848 11.5868L77 13ZM21.0595 66.1868C15.6468 71.6068 15.6468 80.3932 21.0595 85.8132L23.8898 82.9867C20.0367 79.1284 20.0367 72.8716 23.8898 69.0132L21.0595 66.1868ZM21.0595 85.8132L75.5848 140.413L78.4152 137.587L23.8898 82.9867L21.0595 85.8132ZM78.4152 140.413L132.941 85.8132L130.11 82.9867L75.5848 137.587L78.4152 140.413ZM132.941 85.8132C138.353 80.3932 138.353 71.6068 132.941 66.1868L130.11 69.0132C133.963 72.8716 133.963 79.1284 130.11 82.9867L132.941 85.8132ZM132.941 66.1868L78.4152 11.5868L75.5848 14.4132L130.11 69.0132L132.941 66.1868ZM75.5848 11.5868L21.0595 66.1868L23.8898 69.0132L78.4152 14.4132L75.5848 11.5868Z" fill="white" mask="url(#path-1-inside-1_305_52)"/>
<path d="M76.9998 113.85L76.2927 114.557L76.9998 115.264L77.7069 114.557L76.9998 113.85ZM77.7069 113.142L58.2066 93.6422L56.7924 95.0564L76.2927 114.557L77.7069 113.142ZM95.7929 93.6422L76.2927 113.142L77.7069 114.557L97.2071 95.0564L95.7929 93.6422ZM58.2066 58.4569L69.9564 46.7071L68.5422 45.2929L56.7924 57.0427L58.2066 58.4569ZM84.0431 46.7071L95.7929 58.4569L97.2071 57.0427L85.4573 45.2929L84.0431 46.7071ZM22.4746 67.6L21.0595 66.1868L21.0595 66.1868L22.4746 67.6ZM22.4746 84.4L23.8898 82.9867L23.8898 82.9867L22.4746 84.4ZM77 139L75.5848 140.413C75.96 140.789 76.4691 141 77 141C77.5309 141 78.04 140.789 78.4152 140.413L77 139ZM131.525 84.4L130.11 82.9867L130.11 82.9867L131.525 84.4ZM131.525 67.6L130.11 69.0132L130.11 69.0132L131.525 67.6ZM77 13L78.4152 11.5868C78.04 11.2111 77.5309 11 77 11C76.4691 11 75.96 11.2111 75.5848 11.5868L77 13ZM21.0595 66.1868C15.6468 71.6068 15.6468 80.3932 21.0595 85.8132L23.8898 82.9867C20.0367 79.1284 20.0367 72.8716 23.8898 69.0132L21.0595 66.1868ZM21.0595 85.8132L75.5848 140.413L78.4152 137.587L23.8898 82.9867L21.0595 85.8132ZM78.4152 140.413L132.941 85.8132L130.11 82.9867L75.5848 137.587L78.4152 140.413ZM132.941 85.8132C138.353 80.3932 138.353 71.6068 132.941 66.1868L130.11 69.0132C133.963 72.8716 133.963 79.1284 130.11 82.9867L132.941 85.8132ZM132.941 66.1868L78.4152 11.5868L75.5848 14.4132L130.11 69.0132L132.941 66.1868ZM75.5848 11.5868L21.0595 66.1868L23.8898 69.0132L78.4152 14.4132L75.5848 11.5868Z" fill="url(#paint0_linear_305_52)" mask="url(#path-1-inside-1_305_52)"/>
<path d="M71 34L77 40.0845M71 34V39.9155M71 34V28.0845L77 22L83 28.0845V34M77 40.0845L83 34M77 40.0845V46M83 34V39.9155M77 46L83 39.9155M77 46L71 39.9155M83 39.9155L91.9155 31M71 39.9155L62.0845 31" stroke="white" stroke-width="2"/>
<path d="M71 34L77 40.0845M71 34V39.9155M71 34V28.0845L77 22L83 28.0845V34M77 40.0845L83 34M77 40.0845V46M83 34V39.9155M77 46L83 39.9155M77 46L71 39.9155M83 39.9155L91.9155 31M71 39.9155L62.0845 31" stroke="url(#paint1_linear_305_52)" stroke-width="2"/>
<path d="M57 56.9425H56.9762L56.9593 56.9593L54.9593 58.9593L54.8612 59.0575H55H57.5H57.5238L57.5407 59.0407L59.5407 57.0407L59.6388 56.9425H59.5H57ZM97.0407 56.9593L97.0238 56.9425H97H94.5H94.3612L94.4593 57.0407L96.4593 59.0407L96.4762 59.0575H96.5H99H99.1388L99.0407 58.9593L97.0407 56.9593Z" fill="#96FFF3" stroke="#96FFF3" stroke-width="0.115"/>
<path d="M56.8592 95.0407L56.8761 95.0575H56.8999H59.3999H59.5387L59.4406 94.9593L57.4406 92.9593L57.4237 92.9425H57.3999H54.8999H54.7611L54.8592 93.0407L56.8592 95.0407ZM97.1001 95.0575H97.1239L97.1408 95.0407L99.1408 93.0407L99.2389 92.9425H99.1001H96.6001H96.5763L96.5594 92.9593L94.5594 94.9593L94.4613 95.0575H94.6001H97.1001Z" fill="#DAFFFB" stroke="#DCFFFB" stroke-width="0.115"/>
<path d="M47.5683 68.2753C47.804 68.2753 48.4868 67.6316 48.4868 66.5931C48.4868 65.2753 47.387 64 45.6588 64H43V73.7895H46.68C48.6862 73.7895 49.7195 72.2652 49.7195 70.8198C49.7195 69.247 48.5049 68.2753 47.5683 68.2753ZM45.7797 65.913C46.2329 65.913 46.6619 66.3016 46.6619 66.8543C46.6619 67.4251 46.2087 67.8259 45.7434 67.8259H44.9518V65.913H45.7797ZM46.4987 71.8704H44.9518V69.5506H46.4927C47.4233 69.5506 47.81 70.1154 47.81 70.6802C47.81 71.4332 47.1332 71.8704 46.4987 71.8704Z" fill="white"/>
<path d="M57.9304 65.9372V64H52.0568V73.7895H57.9304V71.834H54.0147V69.8117H57.3744V67.8502H54.0147V65.9372H57.9304Z" fill="white"/>
<path d="M68.0628 73.7895L65.2952 69.8968C66.3406 69.5263 67.096 68.4271 67.096 67.17C67.096 65.4089 65.6034 64 63.7845 64H60.6061L60.6121 73.7895H62.57V69.1619L65.6699 73.7895H68.0628ZM62.5639 65.9494H63.8208C64.4795 65.9494 65.0777 66.4838 65.0777 67.1822C65.0777 67.8806 64.4855 68.4211 63.8208 68.415L62.5639 68.4089V65.9494Z" fill="white"/>
<path d="M77.5245 73.7895L74.056 68.7915L77.18 64H74.9201L72.1827 68.2328V64H70.2309V73.7895H72.1827V69.502L75.1437 73.7895H77.5245Z" fill="white"/>
<path d="M85.5722 65.9372V64H79.6987V73.7895H85.5722V71.834H81.6565V69.8117H85.0163V67.8502H81.6565V65.9372H85.5722Z" fill="white"/>
<path d="M90.2057 71.834V64H88.2479V73.7895H94.1214V71.834H90.2057Z" fill="white"/>
<path d="M102.332 65.9372V64H96.4587V73.7895H102.332V71.834H98.4166V69.8117H101.776V67.8502H98.4166V65.9372H102.332Z" fill="white"/>
<path d="M107.304 73.7895H109.25V69.587L112.271 64H110.054L108.277 67.4008L106.501 64H104.289L107.304 69.587V73.7895Z" fill="white"/>
<path d="M43.2026 85.5815V76.7682H41V87.7814H47.6077V85.5815H43.2026Z" fill="white"/>
<path d="M56.8449 78.9476V76.7682H50.2372V87.7814H56.8449V85.5815H52.4398V83.3064H56.2195V81.0997H52.4398V78.9476H56.8449Z" fill="white"/>
<path d="M70.3241 81.5984H65.1712V83.6412H68.006C67.9312 84.9666 66.8095 85.7728 65.246 85.7728C63.1046 85.7728 61.6226 84.2014 61.6226 82.2885C61.6226 80.232 63.3425 78.7837 65.042 78.7837C66.0209 78.7837 66.9999 79.2619 67.8564 80.1022L69.0801 78.2644C68.006 77.2123 66.49 76.5564 65.0692 76.5428C61.9353 76.5428 59.3792 79.1389 59.3792 82.2885C59.3792 85.4312 61.9217 88 65.1508 88C68.006 88 70.3785 85.9846 70.3785 82.5276C70.3785 82.227 70.3581 81.9195 70.3241 81.5984Z" fill="white"/>
<path d="M79.8061 78.9476V76.7682H73.1983V87.7814H79.8061V85.5815H75.4009V83.3064H79.1806V81.0997H75.4009V78.9476H79.8061Z" fill="white"/>
<path d="M89.4172 76.7409V82.9102L82.925 76.5633H82.8162V87.795H85.0188V81.6258L91.5246 87.9863H91.6265V76.7409H89.4172Z" fill="white"/>
<path d="M98.1105 76.7682L94.9222 76.7751V87.7814H98.1105C101.652 87.7814 103.814 85.7045 103.814 82.2885C103.814 78.852 101.652 76.7614 98.1105 76.7682ZM98.1241 85.5746H97.118V78.9613H98.1037C100.272 78.9613 101.591 80.2184 101.591 82.2816C101.591 84.3312 100.279 85.5746 98.1241 85.5746Z" fill="white"/>
<path d="M109.917 88C112.263 88 113.894 86.7224 113.894 84.7138C113.894 83.0195 112.752 82.0903 110.937 81.2295C109.679 80.6351 108.85 80.4097 108.85 79.7538C108.85 79.1867 109.462 78.7085 110.284 78.7085C110.896 78.7085 111.529 78.975 111.855 79.6308L113.48 78.4899C112.983 77.1576 111.746 76.5359 110.25 76.5359C108.238 76.5359 106.634 77.793 106.634 79.6991C106.634 81.455 107.987 82.1313 109.217 82.7462C110.366 83.3201 111.678 83.9555 111.678 84.7616C111.678 85.3492 110.985 85.7728 109.951 85.7728C109.006 85.7728 108.306 85.4175 107.824 84.6387L106.063 85.8821C106.797 87.2485 108.123 88 109.917 88Z" fill="white"/>
<path d="M23.3591 83.5167C19.2136 79.3655 19.2136 72.6345 23.3591 68.4833L77 14.769L130.641 68.4833C134.786 72.6345 134.786 79.3655 130.641 83.5167L77 137.231L23.3591 83.5167Z" stroke="white" stroke-width="2.5" stroke-linejoin="round"/>
<path d="M23.3591 83.5167C19.2136 79.3655 19.2136 72.6345 23.3591 68.4833L77 14.769L130.641 68.4833C134.786 72.6345 134.786 79.3655 130.641 83.5167L77 137.231L23.3591 83.5167Z" stroke="url(#paint2_linear_305_52)" stroke-width="2.5" stroke-linejoin="round"/>
<defs>
<linearGradient id="paint0_linear_305_52" x1="77" y1="13" x2="77" y2="139" gradientUnits="userSpaceOnUse">
<stop stop-color="#25FFE5"/>
<stop offset="1" stop-color="#CEFFFC" stop-opacity="0"/>
</linearGradient>
<linearGradient id="paint1_linear_305_52" x1="77" y1="22" x2="77" y2="46" gradientUnits="userSpaceOnUse">
<stop stop-color="#25FFE5"/>
<stop offset="0.505208" stop-color="#52FFEB" stop-opacity="0.734375"/>
<stop offset="1" stop-color="#CEFFFC" stop-opacity="0"/>
</linearGradient>
<linearGradient id="paint2_linear_305_52" x1="77" y1="13" x2="77" y2="139" gradientUnits="userSpaceOnUse">
<stop stop-color="#25FFE5"/>
<stop offset="1" stop-color="#CEFFFC" stop-opacity="0"/>
</linearGradient>
</defs>
</svg>
