<svg width="39" height="39" viewBox="0 0 39 39" fill="none" xmlns="http://www.w3.org/2000/svg">
<path d="M17.4716 28.75L18.1206 27.9892C17.9396 27.8348 17.7095 27.75 17.4716 27.75V28.75ZM28.3168 38L27.6679 38.7608C27.9647 39.014 28.3816 39.0714 28.7358 38.908C29.09 38.7446 29.3168 38.3901 29.3168 38H28.3168ZM28.3168 28.75V27.75C27.7645 27.75 27.3168 28.1977 27.3168 28.75H28.3168ZM0 6V23.75H2V6H0ZM6 29.75H17.4716V27.75H6V29.75ZM16.8227 29.5108L27.6679 38.7608L28.9657 37.2392L18.1206 27.9892L16.8227 29.5108ZM29.3168 38V28.75H27.3168V38H29.3168ZM28.3168 29.75H33V27.75H28.3168V29.75ZM39 23.75V6H37V23.75H39ZM33 0H6V2H33V0ZM39 6C39 2.68629 36.3137 0 33 0V2C35.2091 2 37 3.79086 37 6H39ZM0 23.75C0 27.0637 2.68629 29.75 6 29.75V27.75C3.79086 27.75 2 25.9591 2 23.75H0ZM33 29.75C36.3137 29.75 39 27.0637 39 23.75H37C37 25.9591 35.2091 27.75 33 27.75V29.75ZM2 6C2 3.79086 3.79086 2 6 2V0C2.68629 0 0 2.68629 0 6H2Z" fill="white"/>
<path d="M28.25 15C28.25 20.1453 24.2967 24.25 19.5 24.25C14.7033 24.25 10.75 20.1453 10.75 15C10.75 9.85465 14.7033 5.75 19.5 5.75C24.2967 5.75 28.25 9.85465 28.25 15Z" stroke="white" stroke-width="1.5"/>
<path d="M13.2827 13.7808C13.1617 14.177 13.3847 14.5962 13.7808 14.7173C14.177 14.8383 14.5962 14.6153 14.7173 14.2192L13.2827 13.7808ZM16.9494 14.2192C17.0704 14.6153 17.4897 14.8383 17.8858 14.7173C18.282 14.5962 18.505 14.177 18.3839 13.7808L16.9494 14.2192ZM20.6161 13.7808C20.495 14.177 20.718 14.5962 21.1142 14.7173C21.5103 14.8383 21.9296 14.6153 22.0506 14.2192L20.6161 13.7808ZM24.2827 14.2192C24.4038 14.6153 24.823 14.8383 25.2192 14.7173C25.6153 14.5962 25.8383 14.177 25.7173 13.7808L24.2827 14.2192ZM14.7173 14.2192C14.8005 13.9467 14.9805 13.5298 15.2277 13.1983C15.4913 12.8446 15.7042 12.75 15.8333 12.75V11.25C14.9847 11.25 14.3827 11.822 14.0251 12.3017C13.651 12.8035 13.4032 13.3866 13.2827 13.7808L14.7173 14.2192ZM18.3839 13.7808C18.2635 13.3866 18.0157 12.8035 17.6416 12.3017C17.2839 11.822 16.6819 11.25 15.8333 11.25V12.75C15.9625 12.75 16.1753 12.8446 16.439 13.1983C16.6862 13.5298 16.8662 13.9467 16.9494 14.2192L18.3839 13.7808ZM22.0506 14.2192C22.1338 13.9467 22.3138 13.5298 22.561 13.1983C22.8247 12.8446 23.0375 12.75 23.1667 12.75V11.25C22.3181 11.25 21.7161 11.822 21.3584 12.3017C20.9843 12.8035 20.7365 13.3866 20.6161 13.7808L22.0506 14.2192ZM25.7173 13.7808C25.5968 13.3866 25.349 12.8035 24.9749 12.3017C24.6173 11.822 24.0153 11.25 23.1667 11.25V12.75C23.2958 12.75 23.5087 12.8446 23.7723 13.1983C24.0195 13.5298 24.1995 13.9467 24.2827 14.2192L25.7173 13.7808Z" fill="white"/>
<path d="M16.7242 17.805C16.6165 17.405 16.205 17.1681 15.805 17.2758C15.405 17.3835 15.1681 17.795 15.2758 18.195L16.7242 17.805ZM23.6604 18.3556C23.8567 17.9909 23.7203 17.536 23.3556 17.3396C22.9909 17.1433 22.536 17.2797 22.3396 17.6444L23.6604 18.3556ZM15.2758 18.195C15.3628 18.5181 15.5677 18.8281 15.8 19.0907C16.0432 19.3656 16.361 19.639 16.7398 19.8816C17.499 20.3678 18.5351 20.75 19.7692 20.75V19.25C18.8495 19.25 18.0908 18.9656 17.5487 18.6184C17.2769 18.4443 17.0674 18.2594 16.9235 18.0968C16.8518 18.0157 16.8007 17.945 16.7669 17.8892C16.7315 17.8308 16.7235 17.8024 16.7242 17.805L15.2758 18.195ZM19.7692 20.75C21.0182 20.75 21.9088 20.3572 22.5415 19.8231C23.1544 19.3057 23.4804 18.6899 23.6604 18.3556L22.3396 17.6444C22.1607 17.9768 21.9481 18.361 21.5739 18.6769C21.2194 18.9761 20.6741 19.25 19.7692 19.25V20.75Z" fill="white"/>
</svg>
