<svg width="32" height="31" viewBox="0 0 32 31" fill="none" xmlns="http://www.w3.org/2000/svg">
<g clip-path="url(#clip0_437_638)">
<path d="M26.8017 5.36209C24.7837 4.45772 22.6198 3.79142 20.3573 3.4098C20.3161 3.40244 20.275 3.42084 20.2538 3.45766C19.9755 3.94112 19.6672 4.57183 19.4513 5.06757C17.0179 4.71173 14.5969 4.71173 12.2133 5.06757C11.9974 4.56082 11.678 3.94112 11.3984 3.45766C11.3772 3.42207 11.336 3.40367 11.2948 3.4098C9.03358 3.7902 6.86967 4.4565 4.85051 5.36209C4.83303 5.36945 4.81805 5.38173 4.80811 5.39767C0.703636 11.3871 -0.420751 17.2292 0.130836 22.999C0.133332 23.0272 0.149554 23.0542 0.172018 23.0713C2.88003 25.0138 5.5032 26.193 8.07767 26.9747C8.11887 26.987 8.16252 26.9722 8.18874 26.9391C8.79773 26.1268 9.34059 25.2703 9.80604 24.3696C9.83351 24.3168 9.80729 24.2542 9.75115 24.2334C8.89008 23.9143 8.07017 23.5254 7.28148 23.0836C7.2191 23.048 7.2141 22.9609 7.27149 22.9192C7.43746 22.7977 7.60348 22.6713 7.76196 22.5437C7.79063 22.5204 7.83058 22.5155 7.86429 22.5302C13.0457 24.8408 18.6551 24.8408 23.7754 22.5302C23.8091 22.5142 23.8491 22.5192 23.879 22.5425C24.0375 22.6701 24.2035 22.7977 24.3707 22.9192C24.4281 22.9609 24.4243 23.048 24.362 23.0836C23.5733 23.5339 22.7534 23.9143 21.891 24.2322C21.8349 24.253 21.8099 24.3168 21.8374 24.3696C22.3128 25.269 22.8557 26.1255 23.4534 26.9379C23.4784 26.9722 23.5233 26.987 23.5645 26.9747C26.1515 26.193 28.7746 25.0138 31.4826 23.0713C31.5064 23.0542 31.5213 23.0284 31.5238 23.0002C32.184 16.3297 30.4181 10.5355 26.8428 5.39889C26.8341 5.38173 26.8191 5.36945 26.8017 5.36209ZM10.5798 19.4858C9.01985 19.4858 7.73449 18.0869 7.73449 16.369C7.73449 14.6511 8.99492 13.2522 10.5798 13.2522C12.1771 13.2522 13.45 14.6634 13.4251 16.369C13.4251 18.0869 12.1646 19.4858 10.5798 19.4858ZM21.0998 19.4858C19.5399 19.4858 18.2546 18.0869 18.2546 16.369C18.2546 14.6511 19.515 13.2522 21.0998 13.2522C22.6972 13.2522 23.9701 14.6634 23.9452 16.369C23.9452 18.0869 22.6972 19.4858 21.0998 19.4858Z" fill="white"/>
</g>
<defs>
<clipPath id="clip0_437_638">
<rect width="31.6602" height="30.9238" fill="white" transform="translate(0 0.0078125)"/>
</clipPath>
</defs>
</svg>
