<svg width="33" height="32" viewBox="0 0 33 32" fill="none" xmlns="http://www.w3.org/2000/svg">
<g clip-path="url(#clip0_437_637)">
<path d="M32.5048 15.8296C32.5048 7.08688 25.4175 -0.000488281 16.6748 -0.000488281C7.93203 -0.000488281 0.844666 7.08688 0.844666 15.8296C0.844666 23.7307 6.63347 30.2798 14.2013 31.4674V20.4055H10.1819V15.8296H14.2013V12.342C14.2013 8.37462 16.5647 6.18314 20.1806 6.18314C21.912 6.18314 23.7241 6.49232 23.7241 6.49232V10.388H21.728C19.7616 10.388 19.1482 11.6083 19.1482 12.8615V15.8296H23.5386L22.8367 20.4055H19.1482V31.4674C26.716 30.2798 32.5048 23.7307 32.5048 15.8296Z" fill="white"/>
</g>
<defs>
<clipPath id="clip0_437_637">
<rect width="31.6602" height="31.6602" fill="white" transform="translate(0.844727)"/>
</clipPath>
</defs>
</svg>
