<svg width="32" height="32" viewBox="0 0 32 32" fill="none" xmlns="http://www.w3.org/2000/svg">
<g clip-path="url(#clip0_437_640)">
<path d="M16.0972 2.85016C20.3268 2.85016 20.8277 2.86872 22.4911 2.94292C24.037 3.01094 24.8718 3.27065 25.4283 3.48708C26.1641 3.77153 26.6959 4.11781 27.2463 4.66815C27.8028 5.22468 28.1429 5.75029 28.4273 6.48614C28.6438 7.04267 28.9035 7.88364 28.9715 9.42336C29.0457 11.0929 29.0643 11.5938 29.0643 15.8172C29.0643 20.0468 29.0457 20.5477 28.9715 22.2111C28.9035 23.757 28.6438 24.5918 28.4273 25.1483C28.1429 25.8842 27.7966 26.416 27.2463 26.9663C26.6897 27.5228 26.1641 27.8629 25.4283 28.1474C24.8718 28.3638 24.0308 28.6235 22.4911 28.6916C20.8215 28.7658 20.3206 28.7843 16.0972 28.7843C11.8676 28.7843 11.3667 28.7658 9.70331 28.6916C8.1574 28.6235 7.32261 28.3638 6.76609 28.1474C6.03023 27.8629 5.49844 27.5167 4.9481 26.9663C4.39157 26.4098 4.05147 25.8842 3.76702 25.1483C3.5506 24.5918 3.29089 23.7508 3.22287 22.2111C3.14866 20.5415 3.13011 20.0407 3.13011 15.8172C3.13011 11.5876 3.14866 11.0868 3.22287 9.42336C3.29089 7.87746 3.5506 7.04267 3.76702 6.48614C4.05147 5.75029 4.39775 5.21849 4.9481 4.66815C5.50462 4.11163 6.03023 3.77153 6.76609 3.48708C7.32261 3.27065 8.16359 3.01094 9.70331 2.94292C11.3667 2.86872 11.8676 2.85016 16.0972 2.85016ZM16.0972 -0.000488281C11.7996 -0.000488281 11.2616 0.0180626 9.57345 0.0922662C7.89151 0.16647 6.73517 0.438549 5.73342 0.828118C4.68839 1.23624 3.80413 1.77421 2.92605 2.65847C2.04179 3.53655 1.50382 4.42081 1.0957 5.45966C0.706128 6.46759 0.434048 7.61774 0.359844 9.29969C0.285641 10.994 0.26709 11.532 0.26709 15.8296C0.26709 20.1272 0.285641 20.6652 0.359844 22.3533C0.434048 24.0353 0.706128 25.1916 1.0957 26.1934C1.50382 27.2384 2.04179 28.1227 2.92605 29.0007C3.80413 29.8788 4.68839 30.423 5.72724 30.8249C6.73517 31.2145 7.88532 31.4866 9.56727 31.5608C11.2554 31.635 11.7934 31.6535 16.091 31.6535C20.3886 31.6535 20.9266 31.635 22.6147 31.5608C24.2967 31.4866 25.453 31.2145 26.4548 30.8249C27.4936 30.423 28.3779 29.8788 29.2559 29.0007C30.134 28.1227 30.6782 27.2384 31.0801 26.1996C31.4697 25.1916 31.7418 24.0415 31.816 22.3595C31.8902 20.6714 31.9087 20.1334 31.9087 15.8358C31.9087 11.5382 31.8902 11.0002 31.816 9.31206C31.7418 7.63011 31.4697 6.47377 31.0801 5.47202C30.6905 4.42081 30.1526 3.53655 29.2683 2.65847C28.3902 1.7804 27.506 1.23624 26.4671 0.834302C25.4592 0.444733 24.309 0.172653 22.6271 0.0984498C20.9328 0.0180626 20.3948 -0.000488281 16.0972 -0.000488281Z" fill="white"/>
<path d="M16.0971 7.69775C11.6078 7.69775 7.96564 11.3399 7.96564 15.8292C7.96564 20.3185 11.6078 23.9607 16.0971 23.9607C20.5864 23.9607 24.2286 20.3185 24.2286 15.8292C24.2286 11.3399 20.5864 7.69775 16.0971 7.69775ZM16.0971 21.1039C13.1846 21.1039 10.8225 18.7417 10.8225 15.8292C10.8225 12.9167 13.1846 10.5546 16.0971 10.5546C19.0096 10.5546 21.3717 12.9167 21.3717 15.8292C21.3717 18.7417 19.0096 21.1039 16.0971 21.1039Z" fill="white"/>
<path d="M26.4485 7.3764C26.4485 8.42762 25.5951 9.27478 24.5501 9.27478C23.4989 9.27478 22.6517 8.42144 22.6517 7.3764C22.6517 6.32519 23.5051 5.47803 24.5501 5.47803C25.5951 5.47803 26.4485 6.33137 26.4485 7.3764Z" fill="white"/>
</g>
<defs>
<clipPath id="clip0_437_640">
<rect width="31.6602" height="31.6602" fill="white" transform="translate(0.267029)"/>
</clipPath>
</defs>
</svg>
