<svg width="33" height="32" viewBox="0 0 33 32" fill="none" xmlns="http://www.w3.org/2000/svg">
<g clip-path="url(#clip0_437_641)">
<path d="M10.6494 28.6916C22.5937 28.6916 29.1286 18.7935 29.1286 10.2125C29.1286 9.93422 29.1224 9.64977 29.11 9.37151C30.3813 8.45218 31.4783 7.31346 32.3496 6.00885C31.1657 6.5356 29.9087 6.87962 28.6215 7.02915C29.9768 6.21677 30.9916 4.94055 31.4777 3.43708C30.2027 4.19269 28.8084 4.72571 27.3545 5.01329C26.3749 3.97239 25.0796 3.2832 23.6691 3.05226C22.2585 2.82132 20.8111 3.06149 19.5507 3.73565C18.2903 4.40981 17.287 5.4804 16.6961 6.78191C16.1052 8.08341 15.9595 9.54334 16.2815 10.936C13.6998 10.8064 11.1742 10.1358 8.86831 8.9675C6.56245 7.79923 4.52784 6.15942 2.89639 4.15438C2.0672 5.58401 1.81346 7.27572 2.18676 8.8857C2.56005 10.4957 3.53236 11.9031 4.90607 12.822C3.87477 12.7892 2.86606 12.5116 1.96328 12.0119V12.0923C1.96236 13.5926 2.48102 15.0469 3.43111 16.208C4.38119 17.3691 5.70406 18.1654 7.17484 18.4614C6.2195 18.7228 5.21684 18.7609 4.24442 18.5727C4.65945 19.863 5.46694 20.9915 6.5542 21.8007C7.64146 22.61 8.95424 23.0596 10.3093 23.0868C8.00879 24.8939 5.16696 25.8741 2.24154 25.8694C1.72275 25.8686 1.20446 25.8368 0.689453 25.7742C3.66136 27.6808 7.11849 28.6935 10.6494 28.6916Z" fill="white"/>
</g>
<defs>
<clipPath id="clip0_437_641">
<rect width="31.6602" height="31.6602" fill="white" transform="translate(0.689392)"/>
</clipPath>
</defs>
</svg>
