<svg width="69" height="69" viewBox="0 0 69 69" fill="none" xmlns="http://www.w3.org/2000/svg">
<path d="M11.7334 23.5376H56.9594" stroke="white" stroke-width="4.5226" stroke-linecap="round" stroke-linejoin="round"/>
<path d="M54.1328 12.2311H14.56C12.9989 12.2311 11.7334 13.4966 11.7334 15.0577V54.6305C11.7334 56.1916 12.9989 57.4571 14.56 57.4571H54.1328C55.6939 57.4571 56.9594 56.1916 56.9594 54.6305V15.0577C56.9594 13.4966 55.6939 12.2311 54.1328 12.2311Z" stroke="white" stroke-width="4.5226" stroke-linecap="round" stroke-linejoin="round"/>
<path d="M44.4254 36.4431C45.3085 35.56 45.3085 34.1282 44.4254 33.2451C43.5423 32.362 42.1106 32.362 41.2275 33.2451L44.4254 36.4431ZM31.52 46.1506L29.921 47.7496C30.8041 48.6327 32.2358 48.6327 33.1189 47.7496L31.52 46.1506ZM27.4657 38.8984C26.5826 38.0153 25.1508 38.0153 24.2677 38.8984C23.3846 39.7815 23.3846 41.2133 24.2677 42.0964L27.4657 38.8984ZM41.2275 33.2451L29.921 44.5516L33.1189 47.7496L44.4254 36.4431L41.2275 33.2451ZM33.1189 44.5516L27.4657 38.8984L24.2677 42.0964L29.921 47.7496L33.1189 44.5516Z" fill="white"/>
<path d="M45.6531 6.57776V12.231" stroke="white" stroke-width="4.5226" stroke-linecap="round" stroke-linejoin="round"/>
<path d="M23.04 6.57776V12.231" stroke="white" stroke-width="4.5226" stroke-linecap="round" stroke-linejoin="round"/>
</svg>
