<svg width="37" height="31" viewBox="0 0 37 31" fill="none" xmlns="http://www.w3.org/2000/svg">
<path d="M9.12503 29.5C9.12503 26.3934 13.3224 23.875 18.5 23.875C23.6777 23.875 27.875 26.3934 27.875 29.5M29.75 18.7178C33.061 19.5858 35.375 21.5682 35.375 23.8748M7.25 18.7178C3.93893 19.5858 1.625 21.5682 1.625 23.8748M29.7501 11.1927C30.9008 10.1627 31.6251 8.66593 31.6251 7C31.6251 3.89339 29.1067 1.375 26.0001 1.375C24.5594 1.375 23.2452 1.9166 22.2501 2.8073M7.24996 11.1927C6.09918 10.1627 5.37496 8.66593 5.37496 7C5.37496 3.89339 7.89336 1.375 11 1.375C12.4406 1.375 13.7548 1.9166 14.75 2.8073M24.125 12.625C24.125 15.7316 21.6066 18.25 18.5 18.25C15.3934 18.25 12.875 15.7316 12.875 12.625C12.875 9.5184 15.3934 7.00001 18.5 7.00001C21.6066 7.00001 24.125 9.5184 24.125 12.625Z" stroke="white" stroke-width="2" stroke-linecap="round" stroke-linejoin="round"/>
</svg>
