<svg width="33" height="46" viewBox="0 0 33 46" fill="none" xmlns="http://www.w3.org/2000/svg">
<rect x="13" y="1" width="7" height="44" rx="3.5" stroke="white" stroke-width="2"/>
<path d="M6.78667 11.6522L1 8H25.8L32 11.6522L25.8 15H1L6.78667 11.6522Z" fill="#0E1616"/>
<path d="M1 8V7C0.554706 7 0.163061 7.29444 0.0393601 7.7222C-0.0843412 8.14997 0.0897081 8.60799 0.466275 8.84566L1 8ZM6.78667 11.6522L7.28744 12.5178C7.59046 12.3424 7.77974 12.0214 7.78648 11.6714C7.79322 11.3214 7.61644 10.9934 7.32039 10.8065L6.78667 11.6522ZM1 15L0.499227 14.1344C0.107605 14.361 -0.0831053 14.8223 0.0341898 15.2592C0.151485 15.6962 0.54756 16 1 16L1 15ZM25.8 15V16C25.9659 16 26.1292 15.9587 26.2751 15.8799L25.8 15ZM32 11.6522L32.4751 12.5321C32.7926 12.3607 32.9931 12.0315 32.9998 11.6708C33.0065 11.3101 32.8184 10.9737 32.5075 10.7906L32 11.6522ZM25.8 8L26.3075 7.13838C26.1537 7.04778 25.9785 7 25.8 7V8ZM0.466275 8.84566L6.25294 12.4978L7.32039 10.8065L1.53373 7.15434L0.466275 8.84566ZM6.28589 10.7866L0.499227 14.1344L1.50077 15.8656L7.28744 12.5178L6.28589 10.7866ZM1 16H25.8V14H1V16ZM26.2751 15.8799L32.4751 12.5321L31.5249 10.7723L25.3249 14.1201L26.2751 15.8799ZM32.5075 10.7906L26.3075 7.13838L25.2925 8.86162L31.4925 12.5138L32.5075 10.7906ZM25.8 7H1V9H25.8V7Z" fill="white"/>
<path d="M26.2133 24.6522L32 21H7.2L1 24.6522L7.2 28H32L26.2133 24.6522Z" fill="#0E1616"/>
<path d="M32 21V20C32.4453 20 32.8369 20.2944 32.9606 20.7222C33.0843 21.15 32.9103 21.608 32.5337 21.8457L32 21ZM26.2133 24.6522L25.7126 25.5178C25.4095 25.3424 25.2203 25.0214 25.2135 24.6714C25.2068 24.3214 25.3836 23.9934 25.6796 23.8065L26.2133 24.6522ZM32 28L32.5008 27.1344C32.8924 27.361 33.0831 27.8223 32.9658 28.2592C32.8485 28.6962 32.4524 29 32 29V28ZM7.2 28V29C7.03411 29 6.87084 28.9587 6.72487 28.8799L7.2 28ZM1 24.6522L0.52487 25.5321C0.207401 25.3607 0.00688744 25.0315 0.000173569 24.6708C-0.00654221 24.3101 0.181581 23.9737 0.492453 23.7906L1 24.6522ZM7.2 21L6.69245 20.1384C6.84625 20.0478 7.0215 20 7.2 20V21ZM32.5337 21.8457L26.7471 25.4978L25.6796 23.8065L31.4663 20.1543L32.5337 21.8457ZM26.7141 23.7866L32.5008 27.1344L31.4992 28.8656L25.7126 25.5178L26.7141 23.7866ZM32 29H7.2V27H32V29ZM6.72487 28.8799L0.52487 25.5321L1.47513 23.7723L7.67513 27.1201L6.72487 28.8799ZM0.492453 23.7906L6.69245 20.1384L7.70755 21.8616L1.50755 25.5138L0.492453 23.7906ZM7.2 20H32V22H7.2V20Z" fill="white"/>
</svg>
