<svg width="54" height="34" viewBox="0 0 54 34" fill="none" xmlns="http://www.w3.org/2000/svg">
<path d="M2 10.5299L1.7477 9.54033C1.48525 9.60724 1.26013 9.77567 1.12186 10.0086C0.983597 10.2415 0.943511 10.5198 1.01042 10.7822L2 10.5299ZM38.2048 1.29939L39.1944 1.0471C39.0551 0.50057 38.499 0.170479 37.9525 0.309817L38.2048 1.29939ZM39.8034 7.5695L40.1151 8.542C40.6293 8.37718 40.9264 7.84048 40.793 7.31721L39.8034 7.5695ZM3.59858 16.8L2.609 17.0523C2.74242 17.5756 3.26016 17.9046 3.79055 17.803L3.59858 16.8ZM6.95046 29.947L5.96088 30.1993C6.10022 30.7458 6.65622 31.0759 7.20275 30.9366L6.95046 29.947ZM43.1553 20.7165L43.4076 21.7061C43.9541 21.5667 44.2842 21.0107 44.1448 20.4642L43.1553 20.7165ZM41.5567 14.4464L42.5463 14.1941C42.4129 13.6708 41.8951 13.3419 41.3647 13.4434L41.5567 14.4464ZM5.35187 23.6769L5.04018 22.7044C4.52593 22.8692 4.22889 23.4059 4.3623 23.9292L5.35187 23.6769ZM2.2523 11.5195L38.4571 2.28897L37.9525 0.309817L1.7477 9.54033L2.2523 11.5195ZM37.2152 1.55169L38.8138 7.8218L40.793 7.31721L39.1944 1.0471L37.2152 1.55169ZM39.4917 6.597C38.8921 6.78917 37.7791 7.2213 36.9091 8.08623C35.9801 9.00984 35.3758 10.3899 35.8475 12.24L37.8267 11.7354C37.5506 10.6528 37.8819 9.99922 38.3491 9.53468C38.8754 9.01145 39.6194 8.70087 40.1151 8.542L39.4917 6.597ZM1.01042 10.7822L2.609 17.0523L4.58816 16.5477L2.98958 10.2776L1.01042 10.7822ZM3.79055 17.803C4.22933 17.7191 5.06001 17.686 5.81251 17.9327C6.51811 18.164 7.09921 18.6111 7.32863 19.511L9.30778 19.0064C8.86682 17.2768 7.65293 16.3866 6.44872 15.9918C5.29141 15.6125 4.09745 15.6648 3.40661 15.797L3.79055 17.803ZM7.20275 30.9366L43.4076 21.7061L42.903 19.7269L6.69816 28.9574L7.20275 30.9366ZM44.1448 20.4642L42.5463 14.1941L40.5671 14.6987L42.1657 20.9688L44.1448 20.4642ZM41.3647 13.4434C40.8535 13.5412 40.0516 13.6248 39.339 13.4174C38.7064 13.2333 38.1027 12.8181 37.8267 11.7354L35.8475 12.24C36.3192 14.0901 37.5105 15.0124 38.7683 15.3785C39.9462 15.7213 41.1303 15.5678 41.7487 15.4494L41.3647 13.4434ZM7.94003 29.6947L6.34145 23.4246L4.3623 23.9292L5.96088 30.1993L7.94003 29.6947ZM5.66357 24.6494C6.33339 24.4347 7.40664 23.909 8.24105 23.0218C9.10927 22.0987 9.74874 20.736 9.30778 19.0064L7.32863 19.511C7.55804 20.4108 7.26197 21.0816 6.75325 21.6225C6.21071 22.1994 5.46561 22.568 5.04018 22.7044L5.66357 24.6494Z" fill="white"/>
<path d="M52.0403 19.0222V12.502H26.1423H14.2906V19.0222C15.4505 19.0923 18.2976 19.8635 18.2976 22.5978C18.2976 25.3321 15.4505 26.1033 14.2906 26.1734V32.6937H52.0403V26.1734C50.8804 26.1033 48.0334 25.6476 48.0334 22.5978C48.0334 19.548 50.8804 19.0923 52.0403 19.0222Z" fill="#0E1616"/>
<path d="M52.0403 12.502H53.0616C53.0616 11.9379 52.6043 11.4807 52.0403 11.4807V12.502ZM52.0403 19.0222L52.102 20.0416C52.641 20.009 53.0616 19.5623 53.0616 19.0222H52.0403ZM14.2906 12.502V11.4807C13.7266 11.4807 13.2694 11.9379 13.2694 12.502H14.2906ZM14.2906 19.0222H13.2694C13.2694 19.5623 13.6899 20.009 14.229 20.0416L14.2906 19.0222ZM14.2906 32.6937H13.2694C13.2694 33.2577 13.7266 33.7149 14.2906 33.7149V32.6937ZM52.0403 32.6937V33.7149C52.6044 33.7149 53.0616 33.2577 53.0616 32.6937H52.0403ZM52.0403 26.1734H53.0616C53.0616 25.6333 52.6411 25.1866 52.102 25.1541L52.0403 26.1734ZM14.2906 26.1734L14.229 25.1541C13.6899 25.1866 13.2694 25.6333 13.2694 26.1734H14.2906ZM25.121 18.2083C25.121 18.7723 25.5783 19.2295 26.1423 19.2295C26.7063 19.2295 27.1635 18.7723 27.1635 18.2083H25.121ZM27.1635 22.5978C27.1635 22.0338 26.7063 21.5766 26.1423 21.5766C25.5783 21.5766 25.121 22.0338 25.121 22.5978H27.1635ZM25.121 26.9873C25.121 27.5513 25.5783 28.0085 26.1423 28.0085C26.7063 28.0085 27.1635 27.5513 27.1635 26.9873H25.121ZM51.0191 12.502V19.0222H53.0616V12.502H51.0191ZM51.9787 18.0028C51.3446 18.0412 50.1494 18.1858 49.0842 18.8124C47.9473 19.4811 47.0122 20.6756 47.0122 22.5978H49.0546C49.0546 21.4703 49.543 20.912 50.1196 20.5729C50.7679 20.1916 51.5762 20.0733 52.102 20.0416L51.9787 18.0028ZM13.2694 12.502V19.0222H15.3119V12.502H13.2694ZM14.229 20.0416C14.6813 20.0689 15.505 20.2439 16.1821 20.6734C16.8178 21.0765 17.2764 21.6601 17.2764 22.5978H19.3188C19.3188 20.8012 18.3538 19.6321 17.276 18.9485C16.2397 18.2913 15.0599 18.0456 14.3522 18.0028L14.229 20.0416ZM14.2906 33.7149H52.0403V31.6724H14.2906V33.7149ZM53.0616 32.6937V26.1734H51.0191V32.6937H53.0616ZM52.102 25.1541C51.5762 25.1223 50.7679 25.004 50.1196 24.6227C49.543 24.2836 49.0546 23.7254 49.0546 22.5978H47.0122C47.0122 24.5201 47.9473 25.7146 49.0842 26.3833C50.1494 27.0098 51.3446 27.1545 51.9787 27.1928L52.102 25.1541ZM15.3119 32.6937V26.1734H13.2694V32.6937H15.3119ZM14.3522 27.1928C15.0599 27.15 16.2397 26.9044 17.276 26.2471C18.3538 25.5636 19.3188 24.3944 19.3188 22.5978H17.2764C17.2764 23.5355 16.8178 24.1191 16.1821 24.5223C15.505 24.9517 14.6813 25.1267 14.229 25.1541L14.3522 27.1928ZM14.2906 13.5232H26.1423V11.4807H14.2906V13.5232ZM26.1423 13.5232H52.0403V11.4807H26.1423V13.5232ZM25.121 12.502V18.2083H27.1635V12.502H25.121ZM25.121 22.5978V26.9873H27.1635V22.5978H25.121Z" fill="white"/>
</svg>
