<svg width="41" height="49" viewBox="0 0 41 49" fill="none" xmlns="http://www.w3.org/2000/svg">
<path d="M32.7832 15.4068L33.6491 14.9066L32.7832 15.4068L35.482 20.0783C35.7438 20.5315 35.6118 21.1101 35.1792 21.4049L30.7208 24.4427C30.2221 24.7825 29.8374 25.2649 29.6171 25.8267L27.6475 30.8493C27.4564 31.3367 26.9217 31.5941 26.4215 31.4397L21.2667 29.848C20.6901 29.67 20.0732 29.67 19.4965 29.848L14.3417 31.4397C13.8415 31.5941 13.3068 31.3367 13.1157 30.8493L11.1461 25.8267C10.9258 25.2649 10.5411 24.7825 10.0424 24.4427L5.58405 21.4049C5.15142 21.1101 5.01937 20.5316 5.28125 20.0782L7.98005 15.4068C8.28194 14.8843 8.41921 14.2828 8.37394 13.6811L7.96927 8.30129C7.93 7.77926 8.3 7.31529 8.81768 7.23741L14.1526 6.43483C14.7494 6.34505 15.3052 6.07739 15.7475 5.66679L19.7012 1.99617C20.0849 1.63998 20.6783 1.63998 21.062 1.99617L25.0158 5.66679C25.458 6.07739 26.0138 6.34505 26.6106 6.43483L31.9455 7.23741C32.4632 7.31529 32.8332 7.77926 32.794 8.30129L32.3893 13.6811C32.344 14.2828 32.4813 14.8843 32.7832 15.4068Z" stroke="white" stroke-width="2"/>
<circle cx="20.6704" cy="17.6184" r="8.53126" stroke="white" stroke-width="2"/>
<path d="M2.83779 41.4573L1.94319 41.0104C1.76172 41.3737 1.81798 41.8107 2.08555 42.1162C2.35312 42.4217 2.77887 42.535 3.1629 42.403L2.83779 41.4573ZM10.8503 38.7027L11.6884 38.1572C11.4383 37.7729 10.9588 37.608 10.5252 37.757L10.8503 38.7027ZM15.5496 45.922L14.7115 46.4676C14.9332 46.8082 15.339 46.9807 15.7382 46.9041C16.1373 46.8274 16.4503 46.5169 16.5301 46.1183L15.5496 45.922ZM9.95574 24.9698L1.94319 41.0104L3.73239 41.9042L11.7449 25.8636L9.95574 24.9698ZM3.1629 42.403L11.1754 39.6484L10.5252 37.757L2.51268 40.5116L3.1629 42.403ZM10.0122 39.2482L14.7115 46.4676L16.3877 45.3765L11.6884 38.1572L10.0122 39.2482ZM16.5301 46.1183L19.7314 30.1278L17.7704 29.7352L14.569 45.7257L16.5301 46.1183Z" fill="white"/>
<path d="M38.1622 41.6767L39.0568 41.2298C39.2383 41.5931 39.182 42.0301 38.9145 42.3355C38.6469 42.641 38.2211 42.7544 37.8371 42.6223L38.1622 41.6767ZM30.1497 38.9221L29.3116 38.3765C29.5617 37.9922 30.0412 37.8273 30.4748 37.9764L30.1497 38.9221ZM25.4504 46.1414L26.2885 46.6869C26.0668 47.0275 25.661 47.2001 25.2618 47.1235C24.8627 47.0468 24.5497 46.7362 24.4699 46.3377L25.4504 46.1414ZM31.0443 25.1892L39.0568 41.2298L37.2676 42.1235L29.2551 26.0829L31.0443 25.1892ZM37.8371 42.6223L29.8246 39.8677L30.4748 37.9764L38.4873 40.731L37.8371 42.6223ZM30.9878 39.4676L26.2885 46.6869L24.6123 45.5959L29.3116 38.3765L30.9878 39.4676ZM24.4699 46.3377L21.2686 30.3472L23.2296 29.9546L26.431 45.9451L24.4699 46.3377Z" fill="white"/>
</svg>
