<svg width="44" height="33" viewBox="0 0 44 33" fill="none" xmlns="http://www.w3.org/2000/svg">
<path d="M13.4654 8.97415C13.4511 8.56018 13.1039 8.23617 12.6899 8.25044C12.276 8.26472 11.952 8.61188 11.9662 9.02584L13.4654 8.97415ZM8.76364 28.1727L8.09282 27.8373C8.00204 28.0189 7.98873 28.2295 8.05592 28.421C8.1231 28.6125 8.26505 28.7686 8.44934 28.8537L8.76364 28.1727ZM12.5751 13.7545L13.3242 13.7912L12.5751 13.7545ZM7.1 18.1909L6.54713 18.6977C6.81504 18.99 7.26413 19.0232 7.57216 18.7736L7.1 18.1909ZM1 11.5364L0.484192 10.9919C0.18698 11.2735 0.170486 11.7414 0.447134 12.0432L1 11.5364ZM14.8636 1.55451L14.7403 0.814711L14.8636 1.55451ZM20.9636 1L20.9636 1.75H20.9636L20.9636 1ZM34.7569 28.1727L35.0712 28.8537C35.2555 28.7686 35.3974 28.6125 35.4646 28.421C35.5318 28.2295 35.5185 28.0189 35.4277 27.8373L34.7569 28.1727ZM31.695 9.02585C31.7093 8.61188 31.3853 8.26472 30.9713 8.25045C30.5573 8.23617 30.2102 8.56019 30.1959 8.97415L31.695 9.02585ZM30.9454 13.7545L30.1963 13.7912L30.9454 13.7545ZM36.4206 18.1909L35.9484 18.7736C36.2564 19.0232 36.7055 18.99 36.9734 18.6977L36.4206 18.1909ZM42.5205 11.5364L43.0734 12.0432C43.3501 11.7414 43.3336 11.2735 43.0364 10.9919L42.5205 11.5364ZM8.44934 28.8537C9.00254 29.109 9.49678 29.4249 10.128 29.8036C10.7471 30.1751 11.4557 30.5792 12.3637 30.9473C14.1865 31.6863 16.7371 32.25 20.9636 32.25V30.75C16.872 30.75 14.5241 30.2046 12.9272 29.5572C12.1254 29.2321 11.4938 28.8738 10.8998 28.5174C10.318 28.1683 9.72625 27.791 9.07793 27.4918L8.44934 28.8537ZM11.9662 9.02584C12.018 10.5276 11.9457 11.2699 11.826 13.7179L13.3242 13.7912C13.4417 11.3893 13.5199 10.5569 13.4654 8.97415L11.9662 9.02584ZM11.826 13.7179C11.5379 19.6103 10.5778 22.8673 8.09282 27.8373L9.43446 28.5081C12.0055 23.366 13.0252 19.9065 13.3242 13.7912L11.826 13.7179ZM12.103 13.1718L6.62784 17.6082L7.57216 18.7736L13.0473 14.3373L12.103 13.1718ZM7.65287 17.6841L1.55287 11.0296L0.447134 12.0432L6.54713 18.6977L7.65287 17.6841ZM1.51581 12.0808C3.24982 10.4381 6.02828 8.07182 8.70118 6.0637C10.0376 5.05968 11.3362 4.1538 12.457 3.47493C13.6089 2.77717 14.4785 2.37905 14.9869 2.2943L14.7403 0.814711C13.9179 0.951782 12.8281 1.49639 11.6798 2.19194C10.5004 2.90637 9.15795 3.84437 7.80019 4.86444C5.08475 6.90452 2.2623 9.30737 0.484192 10.9919L1.51581 12.0808ZM34.4426 27.4918C33.1573 28.085 31.9 28.8638 29.8442 29.5398C27.8203 30.2053 25.0528 30.75 20.9636 30.75V32.25C25.1926 32.25 28.1203 31.6856 30.3127 30.9647C32.4733 30.2544 33.9535 29.3696 35.0712 28.8537L34.4426 27.4918ZM30.1959 8.97415C30.1428 10.5139 30.076 11.3308 30.1963 13.7912L31.6945 13.7179C31.5777 11.3284 31.6417 10.5706 31.695 9.02585L30.1959 8.97415ZM30.1963 13.7912C30.4953 19.9066 31.515 23.366 34.0861 28.5081L35.4277 27.8373C32.9427 22.8673 31.9826 19.6103 31.6945 13.7179L30.1963 13.7912ZM30.4733 14.3373L35.9484 18.7736L36.8927 17.6082L31.4176 13.1718L30.4733 14.3373ZM36.9734 18.6977L43.0734 12.0432L41.9677 11.0296L35.8677 17.6841L36.9734 18.6977ZM43.0364 10.9919C41.2582 9.30738 38.4358 6.90452 35.7204 4.86442C34.3626 3.84434 33.0202 2.90633 31.8407 2.1919C30.6925 1.49635 29.6026 0.951731 28.7802 0.81466L28.5336 2.29425C29.0421 2.379 29.9117 2.77712 31.0636 3.47488C32.1844 4.15376 33.483 5.05964 34.8194 6.06367C37.4923 8.07181 40.2707 10.4381 42.0047 12.0808L43.0364 10.9919ZM28.7802 0.81466C26.0566 0.360728 22.1555 0.250076 20.9637 0.25L20.9636 1.75C22.1307 1.75007 25.9336 1.86091 28.5336 2.29425L28.7802 0.81466ZM14.9869 2.2943C15.5274 2.20423 16.0511 2.12809 16.5521 2.06398L16.3618 0.57611C15.843 0.642483 15.3005 0.721347 14.7403 0.814711L14.9869 2.2943ZM16.5521 2.06398C18.4769 1.81771 20.0598 1.74992 20.9636 1.75L20.9637 0.25C19.9963 0.249914 18.3497 0.321756 16.3618 0.57611L16.5521 2.06398ZM15.7104 1.24842C15.6075 2.32104 15.7549 3.93752 16.5749 5.31587C17.4271 6.7486 18.9668 7.84986 21.4478 7.84986V6.34986C19.4926 6.34986 18.4443 5.52452 17.864 4.549C17.2514 3.51909 17.1216 2.24566 17.2035 1.39168L15.7104 1.24842ZM25.6922 1.39167C25.7741 2.24566 25.6443 3.51909 25.0317 4.549C24.4514 5.52452 23.4031 6.34986 21.4478 6.34986V7.84986C23.9289 7.84986 25.4686 6.7486 26.3208 5.31587C27.1408 3.93752 27.2882 2.32104 27.1853 1.24842L25.6922 1.39167Z" fill="white"/>
<path d="M19.7229 15.2544L21.7636 12.3151L23.8044 15.2544C23.9654 15.4863 24.2002 15.6569 24.4705 15.7384L27.8966 16.7709L25.7317 19.6201C25.5609 19.8449 25.4712 20.1209 25.4773 20.4031L25.554 23.9806L22.1753 22.8021C21.9087 22.7092 21.6185 22.7092 21.352 22.8022L17.9733 23.9806L18.05 20.4031C18.056 20.1209 17.9664 19.8449 17.7956 19.6201L15.6307 16.7709L19.0568 15.7384C19.3271 15.6569 19.5619 15.4863 19.7229 15.2544ZM25.894 24.0992L25.8936 24.0991L25.894 24.0992Z" stroke="white" stroke-width="1.5"/>
</svg>
