<svg width="86" height="86" viewBox="0 0 86 86" fill="none" xmlns="http://www.w3.org/2000/svg">
<path d="M24.9231 70.9846C24.9231 65.1148 32.8537 60.3565 42.6366 60.3565C52.4195 60.3565 60.3501 65.1148 60.3501 70.9846" stroke="white" stroke-width="4.5226" stroke-linecap="round" stroke-linejoin="round"/>
<path d="M63.8928 50.6123C70.1489 52.2523 74.5209 55.9979 74.5209 60.3561" stroke="white" stroke-width="4.5226" stroke-linecap="round" stroke-linejoin="round"/>
<path d="M21.3804 50.6123C15.1244 52.2523 10.7523 55.9979 10.7523 60.3561" stroke="white" stroke-width="4.5226" stroke-linecap="round" stroke-linejoin="round"/>
<path d="M42.6367 49.7284C48.5064 49.7284 53.2648 44.97 53.2648 39.1003C53.2648 33.2305 48.5064 28.4721 42.6367 28.4721C36.7669 28.4721 32.0085 33.2305 32.0085 39.1003C32.0085 44.97 36.7669 49.7284 42.6367 49.7284Z" stroke="white" stroke-width="4.5226" stroke-linecap="round" stroke-linejoin="round"/>
<path d="M63.8929 36.394C66.0672 34.4479 67.4356 31.6198 67.4356 28.4721C67.4356 22.6024 62.6772 17.844 56.8075 17.844C54.0854 17.844 51.6024 18.8673 49.722 20.5503" stroke="white" stroke-width="4.5226" stroke-linecap="round" stroke-linejoin="round"/>
<path d="M21.3804 36.394C19.206 34.4479 17.8376 31.6198 17.8376 28.4721C17.8376 22.6024 22.596 17.844 28.4658 17.844C31.1878 17.844 33.6709 18.8673 35.5512 20.5503" stroke="white" stroke-width="4.5226" stroke-linecap="round" stroke-linejoin="round"/>
</svg>
